# xmcd
#
# Track frame offsets: 
#        183
#        26433
#        47658
#        63858
#        81033
#        97458
#        109158
#        118833
#        163983
#        183783
#        195033
#        202983
#        238683
#        254958
#        271758
#
# Disc length: 3986 seconds
#
# Revision: 7
# Processed by: cddbd v1.5.2PL0 Copyright (c) Steve Scherf et al.
# Submitted via: ExactAudioCopy v1.0b3
#
DISCID=ce0f900f
DTITLE=Josef Krips: Royal Concertgebouw Orchestra - Symphonies [CD1)
DYEAR=1973
DGENRE=Classical
TTITLE0=Mozart, Wolfgang Amadeus - Symphony No.21 in A major, K.134 - 
TTITLE0=I. Allegro
TTITLE1=Mozart, Wolfgang Amadeus - Symphony No.21 in A major, K.134 - 
TTITLE1=II. Andante
TTITLE2=Mozart, Wolfgang Amadeus - Symphony No.21 in A major, K.134 - 
TTITLE2=III. Menuetto
TTITLE3=Mozart, Wolfgang Amadeus - Symphony No.21 in A major, K.134 - 
TTITLE3=IV. Allegro
TTITLE4=Mozart, Wolfgang Amadeus - Symphony No.22 in C major, K.162 - 
TTITLE4=I. Allegro assai
TTITLE5=Mozart, Wolfgang Amadeus - Symphony No.22 in C major, K.162 - 
TTITLE5=II. Andantino grazioso
TTITLE6=Mozart, Wolfgang Amadeus - Symphony No.22 in C major, K.162 - 
TTITLE6=III. Presto assai
TTITLE7=Mozart, Wolfgang Amadeus - Symphony No.23 in D major, K.181 (1
TTITLE7=62b) - I. Allegro spiritoso - II. Andantino grazioso - III. Pres
TTITLE7=to assai
TTITLE8=Mozart, Wolfgang Amadeus - Symphony No.24 in D major, K.182 (1
TTITLE8=73dA) - I. Allegro spiritoso
TTITLE9=Mozart, Wolfgang Amadeus - Symphony No.24 in D major, K.182 (1
TTITLE9=73dA) - II. Andantino grazioso
TTITLE10=Mozart, Wolfgang Amadeus - Symphony No.24 in D major, K.182 (
TTITLE10=173dA) - III. Allegro
TTITLE11=Mozart, Wolfgang Amadeus - Symphony No.25 in D major, K.183 (
TTITLE11=173dB) - I. Allegro con brio
TTITLE12=Mozart, Wolfgang Amadeus - Symphony No.25 in D major, K.183 (
TTITLE12=173dB) - II. Andante
TTITLE13=Mozart, Wolfgang Amadeus - Symphony No.25 in D major, K.183 (
TTITLE13=173dB) - III. Menuetto
TTITLE14=Mozart, Wolfgang Amadeus - Symphony No.25 in D major, K.183 (
TTITLE14=173dB) - IV. Allegro
EXTD=
EXTT0=
EXTT1=
EXTT2=
EXTT3=
EXTT4=
EXTT5=
EXTT6=
EXTT7=
EXTT8=
EXTT9=
EXTT10=
EXTT11=
EXTT12=
EXTT13=
EXTT14=
PLAYORDER=
